<svg width="26" height="36" viewBox="0 0 26 36" fill="none" xmlns="http://www.w3.org/2000/svg">
<path d="M16.4375 0.578125C21.4375 0.578125 25.5 4.5625 25.5 9.5625C25.5 13 23.5469 16.125 20.5 17.6875L14.25 21.3594V23C14.25 24.4062 13.0781 25.5 11.75 25.5C10.3438 25.5 9.25 24.4062 9.25 23V19.875C9.25 19.0156 9.64062 18.2344 10.4219 17.7656L18.0781 13.3125C19.6406 12.5312 20.5 11.125 20.5 9.5625C20.5 7.375 18.625 5.57812 16.4375 5.57812H8C6.59375 5.57812 5.5 6.67188 5.5 8.07812C5.5 9.32812 4.32812 10.5 3 10.5C1.59375 10.5 0.5 9.40625 0.5 8.07812C0.5 3.9375 3.85938 0.578125 8 0.578125H16.4375ZM11.75 29.25C13.4688 29.25 14.875 30.7344 14.875 32.375C14.875 34.0938 13.4688 35.5 11.75 35.5C9.95312 35.5 8.625 34.1719 8.625 32.375C8.625 30.6562 9.95312 29.25 11.75 29.25Z" fill="#F5648A"/>
</svg>
