<svg width="42" height="42" viewBox="0 0 42 42" fill="none" xmlns="http://www.w3.org/2000/svg">
<path d="M33.8906 18.2656L15.6875 36.4688L13.0312 33.8125L13.3438 33.5H9.75C9.04688 33.5 8.5 32.9531 8.5 32.25V28.6562L8.1875 28.9688C7.79688 29.3594 7.5625 29.75 7.40625 30.2969L5.60938 36.3906L11.7031 34.5938C12.1719 34.4375 12.6406 34.2031 13.0312 33.8125L15.6875 36.4688C14.9062 37.25 13.8906 37.875 12.7969 38.1875L3.34375 40.9219C2.71875 41.1562 2.01562 41 1.54688 40.4531C1 39.9844 0.84375 39.2812 1 38.6562L3.8125 29.2031C4.125 28.1094 4.75 27.0938 5.53125 26.3125L23.7344 8.10938L33.8906 18.2656ZM39.4375 5.60938C41.3906 7.5625 41.3906 10.7656 39.4375 12.7188L35.6875 16.4688L25.5312 6.3125L29.2812 2.5625C31.2344 0.609375 34.4375 0.609375 36.3906 2.5625L39.4375 5.60938Z" fill="#F5648A"/>
</svg>
