<svg width="18" height="17" viewBox="0 0 18 17" fill="none" xmlns="http://www.w3.org/2000/svg">
<path d="M11.9062 5.21875L16.375 5.875C16.75 5.9375 17.0625 6.1875 17.1875 6.5625C17.3125 6.90625 17.2188 7.3125 16.9375 7.5625L13.6875 10.7812L14.4688 15.3438C14.5312 15.7188 14.375 16.0938 14.0625 16.3125C13.75 16.5625 13.3438 16.5625 13 16.4062L9 14.25L4.96875 16.4062C4.65625 16.5625 4.21875 16.5625 3.9375 16.3125C3.625 16.0938 3.46875 15.7188 3.53125 15.3438L4.28125 10.7812L1.03125 7.5625C0.75 7.3125 0.65625 6.90625 0.78125 6.5625C0.90625 6.1875 1.21875 5.9375 1.59375 5.875L6.09375 5.21875L8.09375 1.0625C8.25 0.71875 8.59375 0.5 9 0.5C9.375 0.5 9.71875 0.71875 9.875 1.0625L11.9062 5.21875Z" fill="#FFC31D"/>
</svg>
