<?xml version="1.0" encoding="UTF-8"?> <svg xmlns="http://www.w3.org/2000/svg" id="Capa_2" data-name="Capa 2" viewBox="0 0 484.88 177.77"><defs><style> .cls-1 { fill: none; } .cls-2 { fill: #e52c36; } .cls-3 { fill: #e42b35; } .cls-4 { fill: #504e4f; } </style></defs><g id="Capa_2-2" data-name="Capa 2"><g><path class="cls-1" d="m79.53,16.48c0,2.08-.03,4.18,0,6.27.22,12.9.19,12.94,10.97,20.05,2.28,1.5,3.63,3.21,3.78,6.04.54,10.54,1.3,21.06,1.8,31.6.24,5.03-1.25,6.34-6.45,6.35-4.69,0-9.39,0-14.08,0s-9.39,0-14.08,0c-5.21,0-6.7-1.31-6.45-6.35.51-10.54,1.26-21.06,1.8-31.6.14-2.82,1.5-4.54,3.78-6.04,10.77-7.11,10.75-7.15,10.97-20.05.03-2.09.01-4.18,0-6.26-22.55,1.97-40.43,20.45-41.45,43.25-.03.68-.05,1.36-.05,2.04s.02,1.37.05,2.04c1.07,24.13,21.04,43.43,45.43,43.43,20.66,0,38.13-13.85,43.65-32.74-.87-4.11-1.33-8.37-1.33-12.74s.46-8.63,1.33-12.74c-5.16-17.67-20.78-30.92-39.67-32.56Z"></path><path class="cls-1" d="m6.8,61.79c0,4.47,3.54,8.12,7.97,8.32-.37-2.72-.58-5.49-.58-8.32s.21-5.6.58-8.32c-4.43.19-7.97,3.84-7.97,8.32Z"></path><path class="cls-1" d="m239.98,70.1c-.31,2.3-.74,4.56-1.3,6.78-.99,3.92-2.36,7.68-4.06,11.25l4.38-.97c.85,7.21,2.33,12.2,4.45,14.95,3.82,5.3,9.38,7.95,16.7,7.95,5.78,0,10.58-1.93,14.4-5.81,3.82-3.87,5.73-8.77,5.73-14.71,0-2.39-.33-4.57-.99-6.56-.66-1.99-1.7-3.82-3.1-5.49-1.41-1.67-3.22-3.23-5.45-4.69-2.23-1.46-4.88-2.85-7.95-4.18l-11.85-4.93c-3.97-1.68-7.46-3.54-10.5-5.59.08,1.21.12,2.44.12,3.67,0,2.82-.21,5.59-.58,8.31Z"></path><path class="cls-1" d="m295.23,146.51c-2.39,0-4.45.86-6.16,2.56-1.69,1.69-2.54,3.75-2.54,6.16s.85,4.44,2.54,6.16c1.71,1.69,3.76,2.54,6.16,2.54s4.46-.85,6.16-2.54c1.71-1.71,2.56-3.76,2.56-6.16s-.86-4.46-2.56-6.16c-1.69-1.71-3.75-2.56-6.16-2.56Z"></path><path class="cls-1" d="m456.01,38.65c0-12.57-8.54-18.85-25.61-18.85h-6.6v38.97h5.89c17.55,0,26.32-6.71,26.32-20.12Z"></path><path class="cls-1" d="m152.43,137.37h-7.76v26.07h7.76c3.58-.02,6.64-1.29,9.19-3.82,2.55-2.55,3.82-5.62,3.82-9.21s-1.27-6.66-3.82-9.21c-2.55-2.55-5.61-3.82-9.19-3.82Z"></path><path class="cls-1" d="m379.8,146.54c-2.39,0-4.45.85-6.16,2.54-1.69,1.69-2.54,3.74-2.54,6.13s.85,4.44,2.54,6.13c1.71,1.69,3.76,2.54,6.16,2.54s4.44-.85,6.13-2.54c1.69-1.69,2.54-3.74,2.54-6.13s-.85-4.44-2.54-6.13c-1.69-1.69-3.74-2.54-6.13-2.54Z"></path><path class="cls-1" d="m415.23,146.51c-2.39,0-4.44.85-6.13,2.54-1.71,1.69-2.56,3.74-2.56,6.13s.85,4.45,2.56,6.16c1.69,1.69,3.74,2.54,6.13,2.54s4.44-.85,6.13-2.54c1.69-1.71,2.54-3.76,2.54-6.16s-.85-4.44-2.54-6.13c-1.69-1.69-3.74-2.54-6.13-2.54Z"></path><path class="cls-1" d="m470.96,146.51c-2.39,0-4.44.86-6.13,2.56-1.69,1.69-2.54,3.74-2.54,6.13s.85,4.44,2.54,6.13c1.69,1.69,3.74,2.54,6.13,2.54s4.44-.85,6.16-2.54c1.69-1.69,2.54-3.74,2.54-6.13s-.85-4.44-2.54-6.13c-1.71-1.71-3.76-2.56-6.16-2.56Z"></path><path class="cls-4" d="m127.38,94.59c-2.36,3.72-5.11,7.16-8.18,10.28v27.78c-6.01,15.85-21.1,27.17-39.03,27.17s-33.31-11.33-39.3-27.21h-18.46c.03.1.06.21.09.31h-.09c6.6,25.75,29.99,44.83,57.77,44.83s51.17-19.09,57.77-44.83v-25.82c-4.05-3.68-7.61-7.88-10.56-12.53Z"></path><path class="cls-3" d="m164.22,138.59c-1.55-1.54-3.33-2.73-5.32-3.57-2.07-.89-4.24-1.33-6.5-1.33h-11.21v33.43h11.21c2.25,0,4.42-.44,6.5-1.33,1.99-.84,3.75-2.04,5.29-3.59,1.55-1.54,2.75-3.3,3.59-5.29.89-2.08,1.33-4.25,1.33-6.5s-.44-4.44-1.33-6.5c-.84-1.99-2.03-3.76-3.57-5.32Zm-2.61,21.03c-2.55,2.53-5.61,3.81-9.19,3.82h-7.76v-26.07h7.76c3.58,0,6.64,1.28,9.19,3.82,2.55,2.55,3.82,5.62,3.82,9.21s-1.27,6.66-3.82,9.21Z"></path><rect class="cls-3" x="181.82" y="143.2" width="3.57" height="23.92"></rect><path class="cls-3" d="m183.59,134.51c-.65,0-1.21.23-1.68.7-.47.47-.7,1.03-.7,1.7s.23,1.21.7,1.68c.47.47,1.03.7,1.68.7s1.24-.23,1.7-.7c.47-.47.7-1.03.7-1.68s-.23-1.24-.7-1.7c-.47-.47-1.03-.7-1.7-.7Z"></path><path class="cls-3" d="m211.12,154.46c-1.17-.59-2.53-.94-4.08-1.05-1.66-.11-2.99-.36-3.99-.77-1.31-.54-1.96-1.33-1.96-2.35,0-1.55.82-2.65,2.45-3.29.51-.2,1.05-.34,1.61-.42.22-.03.48-.05.79-.07,1.68,0,3.09.58,4.22,1.75.34.37.65.78.91,1.24l.33.63,3.33-1.26-.49-1.03c-.42-.75-.92-1.42-1.49-2.03-1.8-1.91-4.05-2.87-6.74-2.87-2.28,0-4.23.62-5.83,1.87-1.77,1.38-2.66,3.21-2.66,5.48,0,.68.1,1.33.3,1.93.26.78.7,1.47,1.31,2.08,1.54,1.55,4.1,2.45,7.67,2.68,1.79.11,3.07.62,3.85,1.54.47.53.68,1.14.63,1.84-.12,1.4-.8,2.39-2.03,2.98-.44.2-.92.35-1.47.44-.22.03-.42.05-.62.07-.19.02-.37.02-.52.02-1.31-.02-2.46-.3-3.45-.84-1.18-.67-1.96-1.63-2.33-2.89l-3.43.98c.62,2.13,1.9,3.76,3.82,4.9,1.6.93,3.39,1.41,5.36,1.42h.02c2.1,0,3.89-.55,5.39-1.66,1.69-1.23,2.63-2.95,2.8-5.15.14-1.68-.35-3.16-1.47-4.45-.61-.7-1.35-1.27-2.24-1.73Z"></path><path class="cls-3" d="m229.48,138.96h-3.57v20.38c0,2.14.75,3.98,2.26,5.5,1.52,1.52,3.36,2.29,5.5,2.29v-3.57c-1.17,0-2.16-.41-2.98-1.24-.81-.82-1.21-1.82-1.21-2.98v-12.57h4.2v-3.57h-4.2v-4.24Z"></path><path class="cls-3" d="m248.41,145.21v-1.96h-3.57v23.87h3.57v-14.34c0-1.73.61-3.2,1.84-4.43,1.21-1.23,2.68-1.84,4.41-1.84h.44v-3.57h-.44c-2.35,0-4.43.75-6.25,2.26Z"></path><path class="cls-3" d="m267.85,134.51c-.65,0-1.21.23-1.68.7-.47.47-.7,1.03-.7,1.7s.23,1.21.7,1.68c.47.47,1.03.7,1.68.7s1.24-.23,1.7-.7c.47-.47.7-1.03.7-1.68s-.23-1.24-.7-1.7c-.47-.47-1.03-.7-1.7-.7Z"></path><rect class="cls-3" x="266.07" y="143.2" width="3.57" height="23.92"></rect><path class="cls-3" d="m295.28,142.92c-3.4,0-6.3,1.2-8.7,3.61v-14.11h-3.57v34.69h3.57v-3.31c2.39,2.42,5.29,3.64,8.7,3.64s6.26-1.2,8.65-3.61c2.39-2.39,3.59-5.28,3.59-8.65s-1.2-6.28-3.59-8.67c-2.39-2.39-5.28-3.59-8.65-3.59Zm6.11,18.47c-1.69,1.69-3.75,2.54-6.16,2.54s-4.45-.85-6.16-2.54c-1.69-1.71-2.54-3.76-2.54-6.16s.85-4.46,2.54-6.16c1.71-1.71,3.76-2.56,6.16-2.56s4.46.86,6.16,2.56c1.71,1.69,2.56,3.75,2.56,6.16s-.86,4.44-2.56,6.16Z"></path><path class="cls-3" d="m335.33,157.61c0,1.73-.61,3.2-1.84,4.43-1.23,1.23-2.7,1.84-4.43,1.84s-3.2-.61-4.43-1.84c-1.23-1.23-1.84-2.7-1.84-4.43v-14.36h-3.57v14.36c0,2.7.96,5.02,2.89,6.95,1.93,1.93,4.24,2.89,6.95,2.89,2.36,0,4.45-.75,6.27-2.26v1.94h3.57v-23.87h-3.57v14.36Z"></path><path class="cls-3" d="m354.07,134.51c-.65,0-1.21.23-1.68.7-.47.47-.7,1.03-.7,1.7s.23,1.21.7,1.68c.47.47,1.03.7,1.68.7s1.24-.23,1.7-.7.7-1.03.7-1.68-.23-1.24-.7-1.7-1.03-.7-1.7-.7Z"></path><rect class="cls-3" x="352.3" y="143.2" width="3.57" height="23.92"></rect><path class="cls-3" d="m388.47,146.58c-2.39-2.42-5.28-3.64-8.67-3.64s-6.28,1.2-8.67,3.61c-2.39,2.39-3.59,5.28-3.59,8.65s1.2,6.26,3.59,8.65c2.39,2.41,5.28,3.61,8.67,3.61s6.28-1.21,8.67-3.64v3.29h3.57v-35.88h-3.57v15.34Zm-2.54,14.76c-1.69,1.69-3.74,2.54-6.13,2.54s-4.45-.85-6.16-2.54c-1.69-1.69-2.54-3.74-2.54-6.13s.85-4.44,2.54-6.13c1.71-1.69,3.76-2.54,6.16-2.54s4.44.85,6.13,2.54c1.69,1.69,2.54,3.74,2.54,6.13s-.85,4.44-2.54,6.13Z"></path><path class="cls-3" d="m415.23,142.95c-3.39,0-6.28,1.2-8.67,3.59-2.39,2.39-3.59,5.28-3.59,8.65s1.2,6.28,3.59,8.67c2.39,2.39,5.28,3.59,8.67,3.59s6.26-1.2,8.65-3.59c2.39-2.39,3.59-5.28,3.59-8.67s-1.2-6.26-3.59-8.65c-2.39-2.39-5.28-3.59-8.65-3.59Zm6.13,18.39c-1.69,1.69-3.74,2.54-6.13,2.54s-4.44-.85-6.13-2.54c-1.71-1.71-2.56-3.76-2.56-6.16s.85-4.44,2.56-6.13c1.69-1.69,3.74-2.54,6.13-2.54s4.44.85,6.13,2.54c1.69,1.69,2.54,3.74,2.54,6.13s-.85,4.45-2.54,6.16Z"></path><path class="cls-3" d="m442.76,145.21v-1.96h-3.57v23.87h3.57v-14.34c0-1.73.61-3.2,1.84-4.43,1.21-1.23,2.68-1.84,4.41-1.84h.44v-3.57h-.44c-2.35,0-4.43.75-6.25,2.26Z"></path><path class="cls-3" d="m479.66,146.56c-2.39-2.41-5.29-3.61-8.7-3.61s-6.26,1.2-8.65,3.59c-2.39,2.39-3.59,5.28-3.59,8.67s1.2,6.26,3.59,8.65c2.39,2.39,5.28,3.59,8.65,3.59s6.3-1.2,8.7-3.61v3.29h3.57v-23.87h-3.57v3.31Zm-2.54,14.78c-1.71,1.69-3.76,2.54-6.16,2.54s-4.44-.85-6.13-2.54c-1.69-1.69-2.54-3.74-2.54-6.13s.85-4.44,2.54-6.13c1.69-1.71,3.74-2.56,6.13-2.56s4.44.86,6.16,2.56c1.69,1.69,2.54,3.74,2.54,6.13s-.85,4.44-2.54,6.13Z"></path><path class="cls-4" d="m119.19,74.53c-5.52,18.89-22.99,32.74-43.65,32.74-24.39,0-44.35-19.3-45.43-43.43-.03-.68-.05-1.36-.05-2.04s.02-1.37.05-2.04c1.01-22.8,18.9-41.29,41.45-43.25,0,2.08.03,4.17,0,6.26-.22,12.9-.19,12.94-10.97,20.05-2.28,1.5-3.63,3.21-3.78,6.04-.54,10.54-1.3,21.06-1.8,31.6-.24,5.03,1.25,6.34,6.45,6.35,4.69,0,9.39,0,14.08,0s9.39,0,14.08,0c5.21,0,6.7-1.31,6.45-6.35-.51-10.54-1.26-21.06-1.8-31.6-.14-2.82-1.5-4.54-3.78-6.04-10.77-7.11-10.75-7.15-10.97-20.05-.04-2.09-.01-4.18,0-6.27,18.89,1.65,34.5,14.9,39.67,32.56,1.53-7.24,4.34-14.01,8.18-20.06C116.5,11.83,97.36.44,75.54.44,46.87.44,22.8,20.11,16.07,46.7c-.31-.02-.62-.05-.94-.05-8.35,0-15.14,6.79-15.14,15.14,0,4.63,2.1,8.78,5.39,11.56,2.64,2.23,6.03,3.57,9.75,3.57.32,0,.62-.03.94-.05,6.72,26.58,30.8,46.26,59.47,46.26,17.09,0,32.53-6.99,43.65-18.26,3.08-3.12,5.82-6.57,8.18-10.28-3.84-6.05-6.65-12.82-8.18-20.06Zm-104.42-4.42c-4.43-.19-7.97-3.84-7.97-8.32s3.54-8.12,7.97-8.32c-.37,2.72-.58,5.49-.58,8.32s.21,5.6.58,8.32Z"></path><path class="cls-2" d="m183.47,70.75c0,.83.68,1.51,1.51,1.51s1.51-.68,1.51-1.51v-31.61c1.86,0,3.72,0,5.58,0v31.61c0,.83.68,1.51,1.51,1.51s1.51-.68,1.51-1.51v-31.6c4.93.06,6.35,1.42,6.12,6.34-.51,10.54-1.26,21.06-1.8,31.6-.14,2.82-1.5,4.53-3.78,6.04-10.66,7.04-10.75,7.16-10.96,19.67,20.24-2.68,35.92-20.04,35.92-41.01,0-22.82-18.56-41.38-41.38-41.38s-41.38,18.56-41.38,41.38,17.21,39.98,38.85,41.29c-.21-12.8-.22-12.86-10.96-19.95-2.28-1.5-3.63-3.21-3.78-6.04-.54-10.54-1.3-21.06-1.8-31.6-.24-4.92,1.19-6.28,6.12-6.34v31.6c0,.83.68,1.51,1.51,1.51s1.51-.68,1.51-1.51v-31.61c1.86,0,3.72,0,5.58,0v31.61c0,.83.68,1.51,1.51,1.51s1.51-.68,1.51-1.51v-31.61c.93,0,1.86,0,2.79,0s1.86,0,2.79,0v31.61Z"></path><path class="cls-2" d="m234.62,88.13c1.7-3.57,3.07-7.34,4.06-11.25.56-2.21.99-4.47,1.3-6.78.37-2.72.58-5.49.58-8.31,0-1.23-.05-2.46-.12-3.67-9.81-6.61-14.71-15.14-14.71-25.59,0-3.24.44-6.28,1.31-9.14C215.79,9.4,198.55.44,179.21.44c-21.81,0-40.96,11.4-51.83,28.55-3.84,6.05-6.65,12.82-8.18,20.06-.87,4.11-1.33,8.37-1.33,12.74s.46,8.63,1.33,12.74c1.53,7.24,4.34,14.01,8.18,20.06,2.94,4.64,6.51,8.84,10.56,12.53,3,2.73,6.26,5.19,9.76,7.3,8.54,5.12,18.42,8.23,29,8.66,0-3.35.01-9.34.01-13.93-19.36-1.01-35.64-13.62-42.03-31.02-1.87-5.09-2.89-10.6-2.89-16.34s1.02-11.24,2.89-16.34c6.66-18.14,24.08-31.09,44.53-31.09,23.85,0,43.58,17.61,46.92,40.54.33,2.25.5,4.55.5,6.89s-.18,4.64-.5,6.89c-3.08,21.16-20.13,37.78-41.49,40.22,0,4.53,0,10.54.01,13.99,15.29-1.35,28.97-8.31,38.97-18.8-1.56-3.83-2.69-8.09-3.39-12.78l14.39-3.17Z"></path><path class="cls-4" d="m298.97,88.28c0-8.43-2.31-15.55-6.92-21.35-4.61-5.81-11.9-10.72-21.87-14.75l-12.25-5.01c-8.91-3.66-13.36-8.48-13.36-14.47,0-4.35,1.7-7.95,5.09-10.82,3.39-2.92,7.66-4.37,12.8-4.37,4.19,0,7.61.85,10.26,2.55,2.55,1.48,5.22,4.67,8.03,9.54l15.03-8.91c-7.95-13.78-19.01-20.68-33.16-20.68-10.5,0-19.27,3.13-26.32,9.38-4.58,4.03-7.66,8.7-9.27,14-.87,2.86-1.31,5.91-1.31,9.14,0,10.45,4.91,18.98,14.71,25.59,3.03,2.04,6.53,3.91,10.5,5.59l11.85,4.93c3.07,1.33,5.73,2.72,7.95,4.18,2.23,1.46,4.04,3.02,5.45,4.69,1.4,1.67,2.44,3.5,3.1,5.49.66,1.99.99,4.18.99,6.56,0,5.94-1.91,10.84-5.73,14.71-3.82,3.87-8.62,5.81-14.4,5.81-7.32,0-12.88-2.65-16.7-7.95-2.12-2.76-3.61-7.74-4.45-14.95l-4.38.97-14.39,3.17c.7,4.69,1.83,8.95,3.39,12.78,2.25,5.51,5.38,10.14,9.41,13.86,6.95,6.31,15.75,9.46,26.4,9.46,11.24,0,20.65-3.71,28.23-11.13,7.53-7.37,11.29-16.7,11.29-27.99Z"></path><polygon class="cls-4" points="380.93 107.76 331.71 107.76 331.71 66.73 379.5 66.73 379.5 49.31 331.71 49.31 331.71 19.8 380.93 19.8 380.93 2.39 313.17 2.39 313.17 125.18 380.93 125.18 380.93 107.76"></polygon><path class="cls-4" d="m423.8,74.92h3.34l35.07,50.26h22.67l-38.02-52.33c8.16-1.75,14.74-5.75,19.72-12.01,4.98-6.26,7.48-13.73,7.48-22.43,0-11.13-3.98-20.09-11.93-26.88-7.21-6.1-18.93-9.15-35.15-9.15h-21.71v122.79h18.53v-50.26Zm0-55.11h6.6c17.07,0,25.61,6.28,25.61,18.85,0,13.41-8.78,20.12-26.32,20.12h-5.89V19.8Z"></path></g></g></svg> 