<svg width="41" height="42" viewBox="0 0 41 42" fill="none" xmlns="http://www.w3.org/2000/svg">
<path d="M33.3906 18.2656L15.1875 36.4688L12.5312 33.8125L12.8438 33.5H9.25C8.54688 33.5 8 32.9531 8 32.25V28.6562L7.6875 28.9688C7.29688 29.3594 7.0625 29.75 6.90625 30.2969L5.10938 36.3906L11.2031 34.5938C11.6719 34.4375 12.1406 34.2031 12.5312 33.8125L15.1875 36.4688C14.4062 37.25 13.3906 37.875 12.2969 38.1875L2.84375 40.9219C2.21875 41.1562 1.51562 41 1.04688 40.4531C0.5 39.9844 0.34375 39.2812 0.5 38.6562L3.3125 29.2031C3.625 28.1094 4.25 27.0938 5.03125 26.3125L23.2344 8.10938L33.3906 18.2656ZM38.9375 5.60938C40.8906 7.5625 40.8906 10.7656 38.9375 12.7188L35.1875 16.4688L25.0312 6.3125L28.7812 2.5625C30.7344 0.609375 33.9375 0.609375 35.8906 2.5625L38.9375 5.60938Z" fill="#56CACC"/>
</svg>
