<svg width="51" height="42" viewBox="0 0 51 42" fill="none" xmlns="http://www.w3.org/2000/svg">
<path d="M32.8438 4.20312L22.8438 39.2031C22.4531 40.5312 21.125 41.3125 19.7969 40.9219C18.4688 40.5312 17.6875 39.2031 18.0781 37.875L28.0781 2.875C28.4688 1.54688 29.7969 0.765625 31.125 1.15625C32.4531 1.54688 33.2344 2.875 32.8438 4.20312ZM40.9688 10.5312L49.7188 19.2812C50.7344 20.2188 50.7344 21.8594 49.7188 22.7969L40.9688 31.5469C40.0312 32.5625 38.3906 32.5625 37.4531 31.5469C36.4375 30.6094 36.4375 28.9688 37.4531 28.0312L44.4062 21L37.4531 14.0469C36.4375 13.1094 36.4375 11.4688 37.4531 10.5312C38.3906 9.51562 40.0312 9.51562 40.9688 10.5312ZM13.4688 14.0469L6.51562 21L13.4688 28.0312C14.4844 28.9688 14.4844 30.6094 13.4688 31.5469C12.5312 32.5625 10.8906 32.5625 9.95312 31.5469L1.20312 22.7969C0.1875 21.8594 0.1875 20.2188 1.20312 19.2812L9.95312 10.5312C10.8906 9.51562 12.5312 9.51562 13.4688 10.5312C14.4844 11.4688 14.4844 13.1094 13.4688 14.0469Z" fill="#56CACC"/>
</svg>
