<svg width="41" height="42" viewBox="0 0 41 42" fill="none" xmlns="http://www.w3.org/2000/svg">
<path d="M40.4219 31.2344L38.5469 39.125C38.3125 40.2969 37.375 41.0781 36.2031 41.0781C16.5156 41 0.5 24.9844 0.5 5.29688C0.5 4.125 1.20312 3.1875 2.375 2.95312L10.2656 1.07812C11.3594 0.84375 12.5312 1.46875 13 2.48438L16.6719 11C17.0625 12.0156 16.8281 13.1875 15.9688 13.8125L11.75 17.25C14.4062 22.6406 18.7812 27.0156 24.25 29.6719L27.6875 25.4531C28.3125 24.6719 29.4844 24.3594 30.5 24.75L39.0156 28.4219C40.0312 28.9688 40.6562 30.1406 40.4219 31.2344Z" fill="#56CACC"/>
</svg>
