<svg width="33" height="34" viewBox="0 0 33 34" fill="none" xmlns="http://www.w3.org/2000/svg">
<path d="M31.9375 25.1875L30.4375 31.5C30.25 32.4375 29.5 33.0625 28.5625 33.0625C12.8125 33 0 20.1875 0 4.4375C0 3.5 0.5625 2.75 1.5 2.5625L7.8125 1.0625C8.6875 0.875 9.625 1.375 10 2.1875L12.9375 9C13.25 9.8125 13.0625 10.75 12.375 11.25L9 14C11.125 18.3125 14.625 21.8125 19 23.9375L21.75 20.5625C22.25 19.9375 23.1875 19.6875 24 20L30.8125 22.9375C31.625 23.375 32.125 24.3125 31.9375 25.1875Z" fill="#F23D6D"/>
</svg>
